<mxfile host="app.diagrams.net" modified="2022-03-17T06:19:05.682Z" agent="5.0 (Windows NT 10.0; Win64; x64) AppleWebKit/537.36 (KHTML, like Gecko) Chrome/99.0.4844.51 Safari/537.36 Edg/99.0.1150.39" etag="6xvKjbWijXx1OLICAaJp" version="17.1.3" type="github">
  <diagram id="IE8R4jPH2IxDi7oAoXmm" name="Page-1">
    <mxGraphModel dx="590" dy="376" grid="1" gridSize="10" guides="1" tooltips="1" connect="1" arrows="1" fold="1" page="1" pageScale="1" pageWidth="827" pageHeight="1169" math="0" shadow="0">
      <root>
        <mxCell id="0" />
        <mxCell id="1" parent="0" />
        <mxCell id="XfDGv75JdS5whUA05uO0-5" value="用户" style="shape=umlActor;verticalLabelPosition=bottom;verticalAlign=top;html=1;outlineConnect=0;" vertex="1" parent="1">
          <mxGeometry x="330" y="320" width="30" height="60" as="geometry" />
        </mxCell>
        <mxCell id="XfDGv75JdS5whUA05uO0-6" value="数据标准化功能" style="ellipse;whiteSpace=wrap;html=1;aspect=fixed;" vertex="1" parent="1">
          <mxGeometry x="210" y="160" width="80" height="80" as="geometry" />
        </mxCell>
        <mxCell id="XfDGv75JdS5whUA05uO0-7" value="" style="shape=flexArrow;endArrow=classic;html=1;rounded=0;" edge="1" parent="1" target="XfDGv75JdS5whUA05uO0-6">
          <mxGeometry width="50" height="50" relative="1" as="geometry">
            <mxPoint x="330" y="310" as="sourcePoint" />
            <mxPoint x="260" y="250" as="targetPoint" />
          </mxGeometry>
        </mxCell>
        <mxCell id="XfDGv75JdS5whUA05uO0-8" value="①设计并录入数据标准" style="text;html=1;align=center;verticalAlign=middle;resizable=0;points=[];autosize=1;strokeColor=none;fillColor=none;" vertex="1" parent="1">
          <mxGeometry x="160" y="280" width="140" height="20" as="geometry" />
        </mxCell>
        <mxCell id="XfDGv75JdS5whUA05uO0-9" value="&lt;font style=&quot;font-size: 12px&quot;&gt;数据标准映射功能&lt;/font&gt;" style="ellipse;whiteSpace=wrap;html=1;aspect=fixed;" vertex="1" parent="1">
          <mxGeometry x="414" y="160" width="80" height="80" as="geometry" />
        </mxCell>
        <mxCell id="XfDGv75JdS5whUA05uO0-10" value="" style="shape=flexArrow;endArrow=classic;html=1;rounded=0;entryX=0;entryY=1;entryDx=0;entryDy=0;" edge="1" parent="1" target="XfDGv75JdS5whUA05uO0-9">
          <mxGeometry width="50" height="50" relative="1" as="geometry">
            <mxPoint x="360" y="310" as="sourcePoint" />
            <mxPoint x="283.5268679070018" y="242.34944337212755" as="targetPoint" />
          </mxGeometry>
        </mxCell>
        <mxCell id="XfDGv75JdS5whUA05uO0-11" value="②将数据标准映射至&lt;br&gt;数据预处理过程" style="text;html=1;align=center;verticalAlign=middle;resizable=0;points=[];autosize=1;strokeColor=none;fillColor=none;" vertex="1" parent="1">
          <mxGeometry x="394" y="275" width="120" height="30" as="geometry" />
        </mxCell>
      </root>
    </mxGraphModel>
  </diagram>
</mxfile>
